<svg width="101" height="89" viewBox="0 0 101 89" fill="none" xmlns="http://www.w3.org/2000/svg">
<g id="Group 8">
<ellipse id="Ellipse 2" cx="8.3105" cy="6.21568" rx="6.71439" ry="4.16225" transform="rotate(-9.52333 8.3105 6.21568)" stroke="#333333" stroke-width="2"/>
<path id="Vector 5" d="M15 5.5C15.3333 5.5 16.3 5.7 17.5 6.5C17.8545 6.73633 18.7122 9.82922 19.8309 14.5M29 57.5L25.1301 64.5362C24.397 65.8691 25.3613 67.5 26.8825 67.5H48.5M29 57.5H36.5M29 57.5C28.2626 53.8131 27.3474 49.3008 26.3562 44.5M98 77C97.7734 75.1872 97.3671 73.7081 96.8741 72.5046C95.163 68.3272 90.1986 67.5 85.6843 67.5H48.5M19.8309 14.5L36.5 14.9158M19.8309 14.5C20.6915 18.0935 21.7066 22.6209 22.7657 27.5M36.5 14.9158V57.5M36.5 14.9158L50.5 15.2651M36.5 57.5H48.5M50.5 15.2651L62.2607 15.5585M50.5 15.2651L50 57.5M62.5 57.5L62.2607 15.5585M62.5 57.5H76M62.5 57.5H50M62.2607 15.5585L75.786 15.8959M76 57.5L75.786 15.8959M76 57.5H88.5M75.786 15.8959L87.893 16.198M87.893 16.198L97.9274 16.4483C99.0598 16.4765 99.9428 17.4387 99.8738 18.5694L99.3293 27.5M87.893 16.198L88.5 57.5M88.5 57.5H95.6182C96.6755 57.5 97.5502 56.6771 97.6145 55.6217L98.2927 44.5M98.2927 44.5H26.3562M98.2927 44.5L99.3293 27.5M26.3562 44.5C25.2087 38.9422 23.9592 32.9979 22.7657 27.5M22.7657 27.5H99.3293M48.5 57.5V67.5M48.5 57.5H50" stroke="#333333" stroke-width="2" stroke-linecap="round"/>
<circle id="Ellipse 3" cx="29" cy="80" r="8" stroke="#333333" stroke-width="2"/>
<circle id="Ellipse 4" cx="84" cy="80" r="8" stroke="#333333" stroke-width="2"/>
</g>
</svg>
