<svg width="228" height="163" viewBox="0 0 228 163" fill="none" xmlns="http://www.w3.org/2000/svg">
<path d="M39.3331 22.1338C31.7331 24.6671 24.2665 32.9338 13.7331 50.4005C5.59981 63.8671 2.13314 93.6005 7.33314 104.534C12.1331 114.667 22.3998 117.334 34.1331 111.334C37.7331 109.467 41.0665 108 41.5998 108C42.1331 108 44.7998 110.134 47.5998 112.8C53.7331 118.667 60.5331 121.6 66.6665 121.067L71.3331 120.667L65.3331 117.734C61.9998 116.134 56.3998 111.734 52.7998 108.134L46.2665 101.467L49.5998 96.4005C59.9998 80.6671 64.5331 66.2671 64.5331 48.6671C64.6665 37.6005 64.2665 34.5338 61.9998 30.8005C56.6665 21.8671 48.7998 18.8004 39.3331 22.1338ZM52.1331 27.0671C63.0665 35.4671 59.5998 68.0005 45.4665 89.7338C42.3998 94.6671 41.9998 94.8005 40.2665 92.4005C39.1998 91.0671 36.9331 86.6671 35.0665 82.6671C30.2665 71.7338 29.9998 71.3338 26.6665 70.9338C23.8665 70.4005 23.7331 70.8005 24.3998 75.6005C24.9331 78.4005 27.5998 85.4671 30.5331 91.3338C33.8665 98.1338 35.3331 102.534 34.5331 103.467C33.8665 104.267 33.5998 105.2 33.9998 105.6C34.3998 105.867 33.8665 106.267 33.0665 106.267C32.1331 106.4 29.4665 107.2 27.1998 108.134C17.5998 112 11.9998 105.467 11.9998 90.0005C11.9998 80.1338 15.1998 65.4671 17.8665 63.3338C18.7998 62.5338 20.5331 58.6671 21.8665 54.6671C24.6665 45.7338 35.0665 29.8671 39.8665 27.3338C44.1331 25.0671 49.3331 24.9338 52.1331 27.0671Z" fill="#122F50"/>
<path d="M158 38.1333C156.933 40.8 156 43.4667 156 44C156 45.0667 141.6 46.6667 131.733 46.6667C124.933 46.6667 123.6 48.2667 128.133 50.6667C130 51.7333 134.667 51.8667 142.133 51.3333L153.333 50.4L148.667 63.4667C144.267 75.4667 137.733 86.8 128.667 98C126.933 100.133 125.067 101.467 124.533 101.067C123.467 99.8667 126.4 82.5333 129.467 72.6667C132 64.5333 131.067 60.4 127.733 63.7333C126.8 64.6667 124.533 65.3333 122.4 65.3333C117.733 65.3333 110.933 71.3333 105.2 80.4C98.9333 90.2667 89.1999 102.667 87.5999 102.667C85.7333 102.667 87.4666 91.8667 91.1999 79.4667C94.3999 69.2 94.5333 66.6667 91.8666 66.6667C91.1999 66.6667 86.1333 73.6 80.5333 82.1333C75.0666 90.6667 70.1333 97.3333 69.7333 96.9333C68.6666 95.7333 73.1999 81.3333 77.4666 73.0667C80.9333 66.1333 81.1999 65.2 79.1999 64.4C76.3999 63.3333 72.7999 67.6 68.3999 77.0667C62.7999 89.2 62.6666 100.267 68.1333 102C71.3333 103.067 73.7333 101.333 79.0666 94L82.9333 88.6667L81.9999 94.8C80.1333 107.2 86.5333 110.4 95.1999 101.467L100.4 96.1333L102.667 98.9333C105.733 102.8 108.267 101.467 114.133 93.3333C116.8 89.7333 119.067 86.6667 119.067 86.6667C119.2 86.6667 119.333 90.4 119.333 94.8C119.333 101.867 119.733 103.333 122.4 105.067C125.333 107.067 125.733 106.8 132.8 99.4667L140 91.7333V97.6C140 109.733 146.8 110 157.733 98.2667L165.6 90L164.8 94.6667C162.267 107.2 162.267 108 164.267 108C167.2 108 169.867 104.267 170 100.133C170.133 94.5333 172.133 86.6667 173.467 86.6667C174.133 86.6667 175.6 84.8 176.8 82.4C178 80 182.4 74.6667 186.4 70.4C190.4 66.1333 193.333 62.6667 192.8 62.6667C190.8 62.6667 183.2 67.0667 180 70.1333L176.667 73.2V68.9333C176.667 66.1333 176 64.5333 174.533 64.2667C172.8 64 171.867 65.6 170.667 70.9333C168.933 78.5333 162.933 87.3333 152.8 97.2C149.467 100.533 146.267 102.8 145.867 102.267C144.267 100.667 148 83.8667 153.867 66.6667L159.467 50L169.467 49.6C174.933 49.4667 180.267 48.9333 181.333 48.5333C184.8 47.3333 179.6 45.3333 170.133 44.4C161.733 43.6 161.6 43.6 162.667 40.1333C164.8 32.5333 161.067 30.9333 158 38.1333ZM114.667 83.3333C110 90.2667 106 95.7333 105.6 95.4667C104.4 94.2667 111.867 80.6667 116.8 74.9333C124.667 65.6 123.733 69.6 114.667 83.3333Z" fill="#122F50"/>
<path d="M202.533 64.6676C191.6 70.5342 184.133 96.0009 190.8 104.534C194.266 109.068 198.266 108.934 204.8 104.268C212.266 98.8009 225.6 80.9342 225.066 77.2009C224.8 74.6676 223.466 75.8676 216.933 84.4009C208.133 95.8676 199.2 104.401 196.933 103.601C192.533 102.134 195.866 81.3342 200.533 81.3342C209.6 81.3342 217.6 67.7342 210.8 64.0009C207.466 62.2676 206.8 62.4009 202.533 64.6676ZM208 68.6676C208 71.0676 201.6 78.0009 200.4 76.8009C199.6 76.1342 206.133 66.6676 207.466 66.6676C207.733 66.6676 208 67.6009 208 68.6676Z" fill="#122F50"/>
</svg>
